<svg xmlns="http://www.w3.org/2000/svg" xmlns:xlink="http://www.w3.org/1999/xlink" viewBox="0 0 1445.06 172.61"><defs><style>.cls-1{fill:url(#Безымянный_градиент_15);}.cls-2{fill:#262626;}.cls-3{fill:url(#Безымянный_градиент_2);}</style><linearGradient id="Безымянный_градиент_15" x1="57.45" y1="160.55" x2="379.13" y2="8.12" gradientUnits="userSpaceOnUse"><stop offset="0" stop-color="#970000"/><stop offset="0.2" stop-color="#c00"/><stop offset="1" stop-color="#c00"/></linearGradient><linearGradient id="Безымянный_градиент_2" x1="155.04" y1="-65.71" x2="404.54" y2="143.64" gradientUnits="userSpaceOnUse"><stop offset="0" stop-color="#5b0000"/><stop offset="0.84" stop-color="#c00"/><stop offset="1" stop-color="#c00"/></linearGradient></defs><g id="Слой_2" data-name="Слой 2"><g id="Слой_1-2" data-name="Слой 1"><path class="cls-1" d="M53.75,0h0A53.7,53.7,0,0,0,0,53.72v63.94a53.7,53.7,0,0,0,53.7,53.7H177.25a53.69,53.69,0,0,0,53.69-53.7v-1.57H183.26a20,20,0,0,1-19.72,16.68H67.4a20,20,0,0,1-20-20V58.65a20,20,0,0,1,20-20H335.34a14.52,14.52,0,0,1,0,29l-209.2,0h0v3.3a35.22,35.22,0,0,0,35.26,35.26H231l55,42.23a105.55,105.55,0,0,0,65.81,22.93h37.55l-79.22-65.12h39.8v0a47.57,47.57,0,0,0,47.57-47.57v-11A47.56,47.56,0,0,0,349.85,0H53.75Z"/><path class="cls-2" d="M751,1.2H665.33a37.24,37.24,0,0,0-37.24,37.24V82.79A37.24,37.24,0,0,0,665.33,120H751a37.24,37.24,0,0,0,37.24-37.24V38.44A37.24,37.24,0,0,0,751,1.2m4.39,78.17a13.9,13.9,0,0,1-13.89,13.9H674.84a13.9,13.9,0,0,1-13.9-13.9V41.86A13.9,13.9,0,0,1,674.84,28h66.68a13.9,13.9,0,0,1,13.89,13.9Z"/><polygon class="cls-2" points="1445.06 27.96 1445.06 1.2 1300.01 1.2 1300.01 119.98 1445.06 119.98 1445.06 93.22 1332.86 93.22 1332.86 73.08 1445.06 73.08 1445.06 48.1 1332.86 48.1 1332.86 27.96 1445.06 27.96"/><path class="cls-2" d="M932.27,74.86a33,33,0,0,0,33-33V34.2a33,33,0,0,0-33-33H819.05V28H922.21a10.07,10.07,0,0,1,0,20.14H819.1l68.83,56A73.17,73.17,0,0,0,933.57,120h26L904.67,74.87h27.6Z"/><path class="cls-2" d="M1103.09,120.05h38.35L1069.86,1.21h-37L961.27,120h38.35l12.17-20.21h79.13Zm-75.18-47,23.44-38.92,23.45,38.92Z"/><path class="cls-2" d="M620.87,69.49a23,23,0,0,0-.69-2.66C617,57,607.78,48.13,596.9,48.13H548.67v2.29a25,25,0,0,0,.48,4.86,26.15,26.15,0,0,0,.7,2.67,24.45,24.45,0,0,0,23.27,16.92h48.24v-.52a24.35,24.35,0,0,0-.49-4.86"/><path class="cls-2" d="M1259.67,83.8a13.88,13.88,0,0,1-13.15,9.44h-66.68a13.9,13.9,0,0,1-13.9-13.89V41.84a13.9,13.9,0,0,1,13.9-13.9h66.68a13.89,13.89,0,0,1,13.15,9.44h33.57A37.24,37.24,0,0,0,1256,1.18h-85.69a37.24,37.24,0,0,0-37.24,37.24V82.77A37.24,37.24,0,0,0,1170.34,120H1256a37.24,37.24,0,0,0,37.21-36.21Z"/><path class="cls-2" d="M588.29,81.73a13.88,13.88,0,0,1-13.67,11.56H507.93A13.91,13.91,0,0,1,494,79.39V41.88A13.9,13.9,0,0,1,507.93,28H621.37V1.22H498.43a37.24,37.24,0,0,0-37.25,37.24V82.81a37.24,37.24,0,0,0,37.25,37.24h85.69a37.24,37.24,0,0,0,37.25-37.24V81.73Z"/><path class="cls-2" d="M513.89,172.54h-5.56V164H466.66v8.57h-5.48v-20q0-6.6,6.62-6.6h39.46q6.63,0,6.63,6.67Zm-47.23-13.9h41.67c-.44-1.88,1.38-7.76-2.19-7.42H468.85C465.35,150.88,467,156.76,466.66,158.64Z"/><path class="cls-2" d="M621.44,172.54l-46.1,0V146h46.23q6.55,0,6.55,6.37c.07,2.81.41,6.62-3.41,6.93,4,.3,3.43,4.12,3.41,6.92q0,6.36-6.68,6.36m-1.1-5.25c3,.37,3.14-5.64.13-5.35H580.79v5.35Zm-39.48-10.67h39.48c2,.12,2.37-1.63,2.22-3.27,2.72-4.47-40.81-1.14-41.7-2.11Z"/><polygon class="cls-2" points="723.58 172.58 716.99 172.58 716.99 151.31 689.48 151.31 689.48 145.9 751 145.9 751 151.22 723.58 151.22 723.58 172.58"/><path class="cls-2" d="M819.09,172.58c-10.07.85-5.71-14.58-6.6-20.23q0-6.39,6.53-6.39h39.53c10.17-.85,5.82,14.59,6.7,20.33q0,6.22-6.48,6.22Zm40.64-7.43V153.52a2,2,0,0,0-2.19-2.23H820.25c-1.46,0-2.2.69-2.2,2.08v11.71a1.93,1.93,0,0,0,2.2,2.17c1.12-1,41.87,2.38,39.48-2.1"/><path class="cls-2" d="M979.43,172.58H933.2q-6.48,0-6.48-6.48c.91-5.59-3.47-21,6.48-20.14h46.23v5.28c-1.18,1.06-49.45-2.46-47.19,2v11.83c0,1.45.69,2.17,2.09,2.17h45.1Z"/><polygon class="cls-2" points="1088.16 151.29 1046.51 151.27 1046.46 172.56 1040.9 172.58 1040.97 145.92 1093.66 145.92 1093.66 172.56 1088.16 172.56 1088.16 151.29"/><path class="cls-2" d="M1161.72,172.58c-10.07.85-5.7-14.58-6.59-20.23q0-6.39,6.52-6.39h39.53c10.18-.85,5.82,14.59,6.7,20.33q0,6.22-6.48,6.22Zm40.65-7.43V153.52a2,2,0,0,0-2.2-2.23h-37.29c-1.46,0-2.19.69-2.19,2.08v11.71a1.93,1.93,0,0,0,2.19,2.17c1.12-1,41.87,2.38,39.49-2.1"/><path class="cls-2" d="M1274.87,164.1v8.48h-5.56V145.94h46q6.75,0,6.74,6.33c.22,5.17.54,12.34-6.68,11.83Zm39.48-12.83h-39.48v7.5l39.57-.07c2.79.25,1.88-3.69,2-5.37,0-1.37-.69-2.06-2.11-2.06"/><polygon class="cls-2" points="1417.64 172.58 1411.04 172.58 1411.04 151.31 1383.54 151.31 1383.54 145.9 1445.06 145.9 1445.06 151.22 1417.64 151.22 1417.64 172.58"/><path class="cls-3" d="M145.56,38.6H335.32a14.52,14.52,0,0,1,0,29l-154.46,0,105,80.82a105.61,105.61,0,0,0,65.83,22.94h37.55L310,106.25h39.81v0a47.58,47.58,0,0,0,47.58-47.58v-11A47.58,47.58,0,0,0,349.84,0H99.9Z"/></g></g></svg>